<?xml version="1.0" standalone="no"?>
<svg xmlns="http://www.w3.org/2000/svg" viewBox="0 0 150.34 29" width="150.34" height="29"><g fill="#ff511a" color="#ff511a" transform="translate(0, 0) scale(0.5686275)"><svg width="44.0" height="51.0" x="0.0" y="0.0" viewBox="0 0 44 51"><path fill="currentColor" fill-rule="evenodd" d="M22 0L0 12.571v25.143l22 12.572 21.994-12.568.006-.01V12.571L22 0zM6.354 13.778L22 4.84l15.645 8.938-4.231 2.419L22 9.678l-11.411 6.52-4.235-2.42zm17.764 10.158v-8.21L31.3 19.83v8.208l-7.182-4.101zm-11.416-4.107l7.18-4.102v8.207l-7.18 4.103v-8.208zm11.416 19.57l11.415-6.522V19.826l4.233-2.42v17.89l-15.648 8.941v-4.838zM4.233 35.296v-17.89l4.233 2.42v13.049l11.416 6.524v4.838l-15.649-8.94zm10.583-3.63l7.182-4.104 7.183 4.104L22 35.768l-7.184-4.102z"></path></svg></g><line x1="37.02" y1="1" x2="37.02" y2="28" stroke="#000000" stroke-linecap="round"></line><path fill="#000000" fill-rule="nonzero" d="M5.16 19.82L5.16 19.82Q3.48 19.82 2.36 19.10Q1.25 18.38 0.67 17.11Q0.10 15.84 0 14.16L0 14.16L2.40 13.51Q2.47 14.54 2.72 15.50Q2.98 16.46 3.55 17.08Q4.13 17.69 5.16 17.69L5.16 17.69Q6.22 17.69 6.76 17.10Q7.30 16.51 7.30 15.41L7.30 15.41Q7.30 14.09 6.70 13.28Q6.10 12.48 5.18 11.66L5.18 11.66L1.92 8.78Q0.96 7.94 0.50 6.95Q0.05 5.95 0.05 4.49L0.05 4.49Q0.05 2.35 1.27 1.18Q2.50 0 4.61 0L4.61 0Q5.76 0 6.64 0.30Q7.51 0.60 8.10 1.22Q8.69 1.85 9.04 2.80Q9.38 3.74 9.50 5.02L9.50 5.02L7.20 5.64Q7.13 4.68 6.91 3.88Q6.70 3.07 6.16 2.58Q5.62 2.09 4.61 2.09L4.61 2.09Q3.60 2.09 3.04 2.63Q2.47 3.17 2.47 4.22L2.47 4.22Q2.47 5.11 2.77 5.69Q3.07 6.26 3.74 6.86L3.74 6.86L7.03 9.74Q8.14 10.70 8.98 12.04Q9.82 13.37 9.82 15.19L9.82 15.19Q9.82 16.63 9.22 17.68Q8.62 18.72 7.57 19.27Q6.53 19.82 5.16 19.82ZM15.41 19.80L15.41 19.80Q14.33 19.80 13.67 19.39Q13.01 18.98 12.71 18.24Q12.41 17.50 12.41 16.49L12.41 16.49L12.41 7.44L10.94 7.44L10.94 5.74L12.41 5.74L12.41 1.68L14.98 1.68L14.98 5.74L17.21 5.74L17.21 7.44L14.98 7.44L14.98 16.32Q14.98 17.14 15.24 17.48Q15.50 17.83 16.25 17.83L16.25 17.83Q16.44 17.83 16.69 17.81Q16.94 17.78 17.18 17.76L17.18 17.76L17.18 19.66Q16.70 19.73 16.30 19.76Q15.89 19.80 15.41 19.80ZM21.74 19.61L19.18 19.61L19.18 5.74L21.74 5.74L21.74 7.70Q22.51 6.43 23.28 6Q24.05 5.57 24.82 5.57L24.82 5.57Q24.91 5.57 25.00 5.57Q25.08 5.57 25.22 5.59L25.22 5.59L25.22 8.42Q24.94 8.30 24.56 8.22Q24.19 8.14 23.81 8.14L23.81 8.14Q23.21 8.14 22.72 8.41Q22.22 8.69 21.74 9.48L21.74 9.48L21.74 19.61ZM30.65 19.80L30.65 19.80Q29.02 19.80 28.13 19.16Q27.24 18.53 26.89 17.29Q26.54 16.06 26.54 14.26L26.54 14.26L26.54 11.09Q26.54 9.24 26.90 8.02Q27.26 6.79 28.16 6.17Q29.06 5.54 30.65 5.54L30.65 5.54Q32.40 5.54 33.23 6.26Q34.06 6.98 34.32 8.34Q34.58 9.70 34.58 11.59L34.58 11.59L34.58 12.72L29.11 12.72L29.11 15.50Q29.11 16.34 29.27 16.87Q29.42 17.40 29.77 17.65Q30.12 17.90 30.67 17.90L30.67 17.90Q31.25 17.90 31.55 17.63Q31.85 17.35 31.96 16.84Q32.06 16.32 32.06 15.62L32.06 15.62L32.06 14.78L34.56 14.78L34.56 15.31Q34.56 17.40 33.67 18.60Q32.78 19.80 30.65 19.80ZM29.11 10.58L29.11 11.33L32.06 11.33L32.06 10.08Q32.06 9.22 31.97 8.63Q31.87 8.04 31.57 7.74Q31.27 7.44 30.62 7.44L30.62 7.44Q30 7.44 29.68 7.73Q29.35 8.02 29.23 8.70Q29.11 9.38 29.11 10.58L29.11 10.58ZM39.41 19.80L39.41 19.80Q38.59 19.80 37.97 19.33Q37.34 18.86 36.98 18.13Q36.62 17.40 36.62 16.58L36.62 16.58Q36.62 15.29 37.06 14.40Q37.49 13.51 38.24 12.90Q39 12.29 40.00 11.83Q40.99 11.38 42.10 10.94L42.10 10.94L42.10 9.96Q42.10 9.12 42 8.57Q41.90 8.02 41.60 7.74Q41.30 7.46 40.70 7.46L40.70 7.46Q40.18 7.46 39.85 7.70Q39.53 7.94 39.38 8.39Q39.24 8.83 39.24 9.43L39.24 9.43L39.24 10.13L36.70 10.03Q36.74 7.73 37.75 6.64Q38.76 5.54 40.87 5.54L40.87 5.54Q42.94 5.54 43.80 6.67Q44.66 7.80 44.66 9.94L44.66 9.94L44.66 16.27Q44.66 16.92 44.70 17.52Q44.74 18.12 44.80 18.64Q44.86 19.15 44.90 19.61L44.90 19.61L42.55 19.61Q42.48 19.22 42.37 18.64Q42.26 18.05 42.22 17.57L42.22 17.57Q41.98 18.38 41.29 19.09Q40.61 19.80 39.41 19.80ZM40.42 17.59L40.42 17.59Q40.80 17.59 41.14 17.38Q41.47 17.16 41.74 16.88Q42 16.61 42.10 16.44L42.10 16.44L42.10 12.50Q41.50 12.84 40.97 13.18Q40.44 13.51 40.04 13.88Q39.65 14.26 39.42 14.72Q39.19 15.19 39.19 15.79L39.19 15.79Q39.19 16.63 39.50 17.11Q39.82 17.59 40.42 17.59ZM49.51 19.61L47.14 19.61L47.14 5.74L49.51 5.74L49.51 7.06Q50.21 6.26 51.05 5.88Q51.89 5.50 52.78 5.50L52.78 5.50Q53.54 5.50 54.16 5.88Q54.77 6.26 55.03 7.25L55.03 7.25Q55.78 6.34 56.65 5.92Q57.53 5.50 58.49 5.50L58.49 5.50Q59.16 5.50 59.71 5.82Q60.26 6.14 60.60 6.85Q60.94 7.56 60.94 8.71L60.94 8.71L60.94 19.61L58.58 19.61L58.58 8.88Q58.58 7.87 58.26 7.52Q57.94 7.18 57.38 7.18L57.38 7.18Q56.86 7.18 56.28 7.48Q55.70 7.78 55.22 8.30L55.22 8.30Q55.22 8.40 55.22 8.50Q55.22 8.59 55.22 8.71L55.22 8.71L55.22 19.61L52.87 19.61L52.87 8.88Q52.87 7.87 52.55 7.52Q52.22 7.18 51.67 7.18L51.67 7.18Q51.14 7.18 50.58 7.48Q50.02 7.78 49.51 8.30L49.51 8.30L49.51 19.61ZM68.30 19.85L68.30 19.85Q66.48 19.85 65.39 19.07Q64.30 18.29 63.80 16.80Q63.31 15.31 63.31 13.22L63.31 13.22L63.31 6.72Q63.31 4.58 63.76 3.08Q64.20 1.58 65.34 0.79Q66.48 0 68.52 0L68.52 0Q70.34 0 71.46 0.61Q72.58 1.22 73.08 2.48Q73.58 3.74 73.58 5.66L73.58 5.66L73.58 6.38L71.04 6.38L71.04 5.78Q71.04 4.51 70.87 3.71Q70.70 2.90 70.19 2.51Q69.67 2.11 68.57 2.11L68.57 2.11Q67.37 2.11 66.83 2.66Q66.29 3.22 66.16 4.16Q66.02 5.11 66.02 6.31L66.02 6.31L66.02 13.51Q66.02 14.90 66.23 15.84Q66.43 16.78 67.01 17.23Q67.58 17.69 68.64 17.69L68.64 17.69Q69.70 17.69 70.27 17.18Q70.85 16.68 71.06 15.70Q71.28 14.71 71.28 13.25L71.28 13.25L71.28 11.90L68.81 11.90L68.81 9.98L73.73 9.98L73.73 19.61L72.02 19.61L71.76 17.38Q71.38 18.46 70.56 19.15Q69.74 19.85 68.30 19.85ZM78.29 19.80L78.29 19.80Q77.47 19.80 77.02 19.37Q76.56 18.94 76.38 18.29Q76.20 17.64 76.20 16.97L76.20 16.97L76.20 5.74L78.77 5.74L78.77 16.20Q78.77 16.94 78.98 17.36Q79.20 17.78 79.87 17.78L79.87 17.78Q80.30 17.78 80.77 17.53Q81.24 17.28 81.67 16.92L81.67 16.92L81.67 5.74L84.24 5.74L84.24 19.61L81.67 19.61L81.67 18.24Q81 18.89 80.15 19.34Q79.30 19.80 78.29 19.80ZM86.95 23.09L86.64 23.09L86.64 21.12Q87.58 21.12 88.13 21.04Q88.68 20.95 88.92 20.72Q89.16 20.50 89.16 20.09L89.16 20.09Q89.16 19.87 88.99 19.13Q88.82 18.38 88.63 17.54L88.63 17.54L85.85 5.74L88.44 5.74L90.31 16.10L92.11 5.74L94.70 5.74L91.39 20.38Q91.18 21.38 90.60 21.97Q90.02 22.56 89.12 22.82Q88.22 23.09 86.95 23.09L86.95 23.09ZM99.48 19.80L99.48 19.80Q97.78 19.80 96.74 18.73Q95.71 17.66 95.57 15.91L95.57 15.91L97.70 15.26Q97.90 16.58 98.35 17.24Q98.81 17.90 99.70 17.90L99.70 17.90Q100.39 17.90 100.75 17.51Q101.11 17.11 101.11 16.44L101.11 16.44Q101.11 15.84 100.85 15.36Q100.58 14.88 99.98 14.38L99.98 14.38L97.61 12.34Q96.89 11.71 96.40 10.94Q95.90 10.18 95.90 8.95L95.90 8.95Q95.90 7.85 96.35 7.09Q96.79 6.34 97.60 5.94Q98.40 5.54 99.48 5.54L99.48 5.54Q101.14 5.54 102.01 6.61Q102.89 7.68 103.01 9.19L103.01 9.19L101.28 9.84Q101.18 9.12 100.99 8.58Q100.80 8.04 100.46 7.74Q100.13 7.44 99.58 7.44L99.58 7.44Q98.95 7.44 98.58 7.86Q98.21 8.28 98.21 8.86L98.21 8.86Q98.21 9.22 98.36 9.56Q98.52 9.91 98.90 10.25L98.90 10.25L101.35 12.50Q101.86 12.96 102.30 13.49Q102.74 14.02 103.03 14.69Q103.32 15.36 103.32 16.25L103.32 16.25Q103.32 17.42 102.84 18.22Q102.36 19.01 101.50 19.40Q100.63 19.80 99.48 19.80Z" transform="translate(47.02, 4.696)"></path></svg>